<?xml version="1.0" standalone="no"?>
<!DOCTYPE svg PUBLIC "-//W3C//DTD SVG 20010904//EN"
 "http://www.w3.org/TR/2001/REC-SVG-20010904/DTD/svg10.dtd">
<svg version="1.0" xmlns="http://www.w3.org/2000/svg"
 width="904.000000pt" height="904.000000pt" viewBox="0 0 904.000000 904.000000"
 preserveAspectRatio="xMidYMid meet">
<metadata>
Created by potrace 1.14, written by Peter Selinger 2001-2017
</metadata>
<g transform="translate(0.000000,904.000000) scale(0.100000,-0.100000)"
fill="#000000" stroke="none">
<path d="M4480 9033 c-14 -2 -50 -8 -80 -13 -30 -5 -71 -12 -90 -15 -45 -8
-129 -47 -156 -73 -12 -11 -32 -51 -45 -89 -18 -51 -36 -80 -74 -119 -49 -49
-54 -52 -280 -128 -126 -42 -234 -78 -240 -80 -5 -2 -17 -6 -25 -9 -61 -24
-304 -105 -445 -147 -94 -27 -180 -54 -192 -60 -20 -8 -68 7 -188 60 -88 39
-323 126 -376 140 -135 35 -262 4 -331 -81 -52 -65 -68 -129 -63 -254 2 -60 7
-137 11 -170 9 -78 9 -263 1 -340 -5 -52 -30 -184 -43 -223 -2 -7 -4 -14 -5
-17 0 -2 -14 -48 -30 -102 -17 -54 -31 -105 -34 -113 -28 -113 -87 -353 -90
-370 -2 -12 -7 -29 -9 -38 -5 -16 -51 -228 -61 -282 -3 -14 -8 -36 -11 -50 -3
-14 -8 -36 -11 -50 -8 -41 -11 -55 -13 -55 -1 0 -3 -11 -5 -25 -2 -14 -15 -83
-30 -155 -15 -71 -28 -139 -31 -150 -2 -11 -7 -33 -11 -50 -4 -16 -6 -34 -5
-38 1 -5 -2 -25 -7 -45 -6 -20 -13 -55 -16 -77 -4 -22 -8 -51 -11 -65 -3 -14
-7 -38 -9 -55 -3 -16 -7 -41 -10 -55 -3 -14 -8 -47 -11 -75 -3 -27 -8 -54 -11
-58 -3 -5 -7 -29 -9 -55 -2 -26 -6 -57 -8 -70 -3 -13 -8 -51 -12 -85 -4 -34
-8 -69 -9 -77 -3 -21 -17 -150 -20 -180 -2 -14 -6 -59 -10 -100 -4 -41 -9 -93
-11 -115 -2 -22 -7 -62 -9 -89 -3 -27 -8 -72 -11 -100 -3 -28 -7 -62 -9 -76
-2 -14 -10 -70 -19 -125 -9 -55 -19 -116 -22 -135 -6 -39 -12 -75 -18 -105
-10 -55 -16 -94 -21 -135 -3 -25 -7 -52 -10 -60 -2 -8 -7 -40 -10 -70 -3 -30
-8 -62 -10 -70 -2 -8 -7 -44 -10 -80 -4 -36 -9 -74 -11 -85 -2 -10 -6 -49 -10
-85 -3 -36 -8 -81 -11 -100 -7 -57 -12 -513 -5 -524 3 -6 7 -27 9 -46 3 -36 8
-67 18 -110 3 -14 8 -38 10 -54 3 -16 11 -38 17 -50 8 -14 13 -96 14 -246 1
-204 6 -309 20 -455 3 -27 7 -68 8 -90 2 -22 7 -60 10 -85 13 -89 26 -186 31
-230 7 -57 11 -82 30 -200 9 -52 17 -106 20 -120 8 -56 17 -104 21 -124 3 -11
7 -34 9 -51 14 -107 38 -200 67 -262 32 -68 70 -104 137 -128 60 -21 208 -39
323 -39 54 0 98 -4 98 -9 0 -4 4 -6 9 -3 4 3 35 1 67 -4 32 -5 84 -11 114 -15
30 -3 72 -7 92 -10 55 -7 178 -19 418 -40 30 -3 100 -8 155 -11 55 -3 125 -7
155 -9 302 -18 828 -23 1125 -11 148 6 214 9 360 21 17 1 45 3 64 4 19 0 32 4
28 7 -10 10 -82 13 -297 13 -574 -2 -798 2 -817 14 -6 4 -14 3 -18 -3 -4 -6
-10 -8 -14 -5 -5 2 -46 7 -92 10 -146 9 -242 15 -294 20 -27 3 -79 7 -115 10
-36 3 -81 7 -100 10 -19 3 -66 7 -105 10 -38 3 -87 8 -107 10 -20 3 -63 8 -95
10 -32 2 -58 5 -58 5 0 2 -54 8 -135 14 -41 4 -82 9 -90 11 -8 2 -46 7 -85 10
-38 4 -71 8 -73 10 -2 2 43 21 100 43 57 22 117 46 133 53 17 7 35 13 40 14 6
2 69 26 140 55 72 29 136 53 143 53 6 0 12 4 12 9 0 4 11 8 24 8 14 0 27 4 30
9 6 9 135 51 198 65 139 31 613 25 1418 -19 58 -3 143 -8 190 -11 369 -20 614
-26 1105 -29 264 -1 496 -5 515 -8 19 -3 59 -8 89 -11 62 -6 91 -27 91 -66 0
-36 -10 -43 -113 -80 -47 -18 -98 -41 -112 -52 -31 -24 -32 -60 -4 -87 22 -20
25 -21 149 -6 25 2 71 7 103 11 32 3 66 7 75 9 9 1 55 6 101 10 47 4 94 9 105
11 46 9 173 6 201 -6 85 -33 132 -108 123 -197 -5 -48 -45 -141 -93 -218 -14
-22 -28 -47 -32 -55 -4 -8 -9 -17 -13 -20 -3 -3 -17 -21 -30 -40 -29 -40 -54
-71 -93 -113 -15 -17 -25 -32 -23 -35 10 -9 109 31 157 64 80 56 199 186 255
279 18 29 63 115 100 191 38 76 74 142 79 146 6 4 7 8 3 8 -3 0 9 32 28 70 19
39 34 73 34 75 0 2 11 28 25 57 13 29 34 78 45 108 12 30 27 69 34 85 28 66
57 145 91 255 20 63 40 127 45 143 5 15 6 27 3 27 -3 0 -1 6 5 13 6 6 13 32
17 56 3 23 10 53 14 65 5 11 9 24 9 29 0 4 3 20 6 35 12 51 16 77 27 147 6 39
12 81 15 95 25 143 25 600 -1 832 -3 24 -7 79 -10 124 -2 44 -7 107 -10 140
-6 68 -12 136 -20 249 -3 44 -8 94 -11 112 -2 17 -7 64 -9 105 -5 72 -10 122
-20 208 -3 25 -7 72 -10 105 -9 108 -16 189 -21 225 -3 19 -7 58 -9 85 -2 28
-6 70 -9 95 -3 25 -8 65 -11 90 -2 25 -7 70 -11 100 -3 30 -7 69 -9 85 -2 17
-6 57 -9 89 -4 33 -8 71 -10 85 -4 24 -10 74 -22 181 -2 25 -6 59 -9 75 -26
184 -26 457 0 580 3 11 7 36 10 55 7 50 12 78 45 240 16 80 32 156 34 170 7
34 46 221 50 241 3 9 7 34 11 55 8 52 14 84 21 114 3 14 7 36 9 50 1 14 6 40
9 58 11 57 17 96 21 122 10 76 16 118 21 140 2 14 6 39 8 55 3 17 9 59 15 95
6 36 13 85 16 110 3 25 7 56 10 70 2 14 7 43 10 65 2 22 7 56 10 75 3 19 7 55
10 80 2 25 6 54 9 66 2 12 7 45 11 75 8 70 20 148 40 254 3 17 8 46 11 65 3
19 11 66 19 104 17 94 13 212 -9 254 -21 40 -67 88 -121 128 -22 16 -44 33
-50 37 -68 53 -344 207 -372 207 -3 0 -19 6 -36 14 -69 31 -434 147 -502 159
-11 2 -27 7 -35 10 -8 3 -26 8 -40 10 -14 3 -45 11 -70 17 -42 11 -55 14 -97
24 -89 21 -402 85 -448 92 -16 3 -41 7 -55 10 -29 7 -34 8 -155 28 -49 9 -124
20 -165 26 -41 7 -102 16 -135 21 -33 5 -85 11 -115 14 -30 3 -71 8 -90 11
-19 3 -57 8 -85 10 -27 2 -72 6 -100 9 -27 3 -75 8 -105 11 -66 6 -564 12
-600 7z m620 -227 c36 -3 94 -8 130 -10 67 -6 123 -12 197 -22 24 -4 57 -8 75
-9 18 -2 51 -6 73 -9 22 -4 69 -11 105 -16 154 -22 193 -29 255 -40 28 -5 64
-12 80 -15 17 -3 44 -7 60 -10 17 -3 64 -13 105 -21 41 -9 84 -18 95 -20 11
-1 31 -6 45 -9 14 -4 36 -8 50 -11 31 -5 344 -86 420 -108 30 -9 62 -18 70
-20 8 -3 16 -5 18 -5 1 -1 3 -1 5 -1 4 0 222 -78 272 -98 72 -29 155 -76 273
-154 182 -121 225 -175 225 -283 0 -56 -8 -133 -18 -180 -3 -11 -7 -31 -9 -45
-2 -14 -11 -64 -20 -112 -9 -47 -18 -101 -20 -120 -4 -37 -16 -122 -23 -153
-2 -11 -6 -45 -9 -75 -3 -30 -7 -62 -10 -70 -3 -8 -7 -49 -9 -90 -3 -41 -8
-95 -11 -120 -16 -105 -25 -169 -29 -207 -2 -18 -8 -40 -14 -50 -8 -17 -20
-72 -35 -173 -8 -51 -16 -91 -23 -125 -4 -16 -7 -37 -8 -45 -1 -8 -4 -28 -8
-45 -7 -29 -12 -50 -22 -105 -8 -43 -14 -74 -20 -100 -6 -30 -14 -66 -20 -100
-2 -14 -14 -70 -25 -125 -12 -55 -23 -111 -26 -125 -13 -74 -33 -191 -40 -235
-10 -72 -13 -310 -4 -377 5 -32 11 -90 15 -130 3 -40 8 -84 10 -98 5 -31 13
-108 20 -180 3 -30 8 -75 11 -100 2 -25 7 -70 9 -100 3 -30 7 -68 9 -85 2 -16
7 -66 10 -110 4 -44 9 -98 11 -120 8 -80 16 -171 20 -210 10 -122 16 -195 20
-240 3 -27 7 -79 10 -115 11 -145 15 -198 20 -265 3 -38 8 -105 11 -147 3 -42
8 -103 9 -135 2 -32 7 -112 11 -178 14 -218 9 -513 -10 -640 -3 -16 -7 -48
-10 -70 -10 -71 -16 -109 -23 -135 -3 -14 -7 -32 -9 -39 -17 -86 -67 -272
-105 -386 -13 -38 -24 -72 -24 -75 -1 -3 -6 -16 -12 -30 -6 -14 -19 -50 -31
-80 -17 -45 -34 -90 -48 -120 -1 -3 -5 -15 -9 -27 -11 -36 -30 -40 -214 -48
-75 -3 -163 -8 -196 -10 -63 -5 -261 -16 -330 -18 -64 -1 -132 12 -209 43 -39
15 -91 32 -116 36 -51 9 -430 12 -435 4 -3 -4 -660 -5 -660 -1 0 1 -56 4 -125
6 -69 2 -179 6 -245 9 -189 9 -342 16 -449 21 -216 11 -433 17 -687 19 -250 3
-269 4 -310 25 -57 28 -68 37 -106 90 -31 42 -32 47 -29 125 2 49 -2 99 -10
127 -18 60 -76 148 -152 230 -142 153 -178 210 -186 290 -2 23 1 54 6 68 6 14
12 69 14 123 7 184 -56 323 -170 377 -66 31 -112 75 -142 139 -23 49 -27 70
-27 152 -1 95 9 205 19 221 2 5 7 21 9 36 6 41 13 72 19 81 3 5 7 19 9 33 3
13 13 50 22 83 9 32 18 64 20 70 1 6 5 18 8 26 3 8 11 35 18 60 7 25 14 50 15
55 26 88 74 280 78 310 4 23 9 52 12 65 3 14 4 68 4 120 -7 384 -5 411 54 652
3 9 18 47 34 85 51 116 95 259 107 343 4 24 8 48 11 51 6 11 16 179 15 263 -2
111 -8 146 -43 226 -29 67 -109 224 -119 234 -5 6 -9 22 -9 37 0 25 9 45 119
252 61 116 76 171 97 372 3 22 6 141 8 265 4 203 8 284 21 375 2 17 7 50 10
75 3 25 13 74 21 110 9 36 18 76 20 90 3 14 12 48 21 75 9 28 18 55 19 60 1 6
20 58 41 118 l38 107 115 36 c188 58 153 46 550 189 177 64 293 105 315 110
92 21 141 75 201 224 32 78 141 123 334 137 41 3 76 7 77 8 5 4 354 -3 423 -8z
m-2910 -540 c0 -17 45 -76 58 -76 6 0 12 -3 12 -8 0 -4 12 -13 28 -20 37 -17
76 -50 203 -174 60 -60 113 -108 118 -108 11 0 22 -26 14 -34 -7 -7 -12 -76
-28 -366 -3 -52 -8 -124 -11 -160 -3 -36 -7 -90 -9 -120 -3 -30 -7 -66 -10
-80 -2 -14 -7 -47 -10 -75 -6 -59 -12 -99 -18 -140 -3 -16 -9 -50 -12 -75 -4
-25 -9 -54 -11 -65 -3 -11 -7 -36 -10 -55 -21 -143 -99 -520 -145 -708 -23
-92 -43 -174 -44 -182 -2 -8 -4 -15 -5 -15 -1 0 -3 -7 -5 -15 -5 -26 -32 -122
-65 -230 -17 -58 -32 -109 -34 -115 -1 -5 -8 -20 -14 -32 -7 -13 -10 -23 -7
-23 4 0 -12 -51 -35 -105 -5 -11 -18 -47 -29 -80 -21 -62 -101 -290 -127 -360
-8 -22 -17 -47 -19 -55 -2 -8 -13 -40 -24 -70 -70 -198 -163 -467 -166 -480
-2 -8 -4 -16 -5 -17 -2 -2 -3 -6 -5 -10 -1 -5 -4 -15 -7 -23 -16 -41 -123
-370 -176 -540 -68 -215 -103 -329 -107 -346 -9 -41 -67 -229 -72 -234 -5 -5
4 333 12 425 2 33 7 87 11 120 3 33 7 71 9 85 3 35 14 114 25 185 17 113 22
150 25 175 4 28 12 88 21 140 10 59 12 74 18 115 3 22 8 51 10 65 2 14 7 46
10 71 4 25 9 57 11 70 2 13 6 44 9 69 4 25 8 56 10 70 5 27 15 117 21 190 5
46 8 75 26 215 15 124 18 146 24 200 4 28 8 61 10 75 2 14 6 43 10 65 3 23 7
50 9 60 2 11 7 45 11 75 4 30 9 64 11 75 2 11 9 49 15 85 5 36 14 85 19 110 5
25 12 63 15 85 3 22 15 85 26 140 12 55 23 111 25 125 3 14 7 34 9 45 3 11 18
83 34 160 16 77 37 176 46 220 10 44 19 89 21 100 5 34 82 336 114 451 44 151
86 312 94 354 3 19 8 46 11 60 19 89 24 327 10 480 -17 199 -12 250 26 247 11
-1 19 -6 19 -11z m356 -2378 c18 -18 26 -82 27 -208 0 -86 -8 -214 -18 -260
-3 -14 -7 -34 -9 -45 -2 -11 -8 -38 -12 -60 -4 -22 -9 -42 -9 -45 -10 -49 -72
-222 -96 -264 -6 -10 -12 -26 -15 -35 -4 -17 -32 -106 -42 -131 -8 -21 -7 -20
-16 -70 -5 -25 -10 -54 -13 -65 -17 -77 -22 -293 -9 -400 8 -62 9 -165 2 -200
-2 -11 -7 -42 -10 -69 -9 -65 -64 -274 -136 -516 -17 -58 -34 -116 -36 -129
-3 -14 -7 -28 -9 -31 -6 -9 -46 -187 -52 -230 -9 -67 -10 -192 -2 -239 19
-105 83 -190 174 -231 87 -40 144 -108 180 -215 30 -90 34 -214 10 -315 -3
-14 -6 -49 -6 -78 0 -74 41 -146 147 -257 189 -200 244 -285 247 -383 2 -91
-29 -115 -253 -197 -107 -39 -411 -155 -435 -165 -48 -21 -151 -61 -165 -65
-8 -2 -95 -35 -194 -74 -98 -39 -189 -71 -201 -71 -46 0 -57 27 -70 185 -4 39
-8 88 -10 110 -2 22 -6 64 -9 93 -6 69 -16 168 -21 212 -2 19 -7 64 -10 100
-3 36 -8 81 -10 100 -2 19 -7 67 -10 105 -7 70 -11 109 -20 195 -2 25 -7 72
-10 105 -3 33 -7 78 -10 100 -3 22 -7 64 -10 93 -8 87 -15 155 -21 202 -4 40
-7 161 -5 216 1 12 11 26 24 31 13 6 31 27 40 46 14 28 15 43 6 93 -15 80 -14
98 10 174 21 67 83 269 87 283 1 4 2 8 4 10 1 1 3 9 5 17 4 16 34 114 85 275
17 55 33 105 34 110 19 68 31 105 36 105 3 0 6 8 7 18 1 9 14 55 29 102 15 47
28 87 29 90 2 12 192 588 237 720 27 80 51 150 52 155 2 6 5 17 9 25 10 27 89
265 92 275 1 6 5 17 8 25 3 8 15 44 27 80 12 36 26 74 31 85 4 11 25 69 45
129 19 60 39 116 43 125 44 93 60 123 88 168 18 29 33 55 33 59 0 4 9 17 20
29 24 25 63 27 86 3z"/>
<path d="M4968 645 c-1 -2 -41 -7 -88 -11 -47 -3 -98 -8 -115 -10 -16 -1 -45
-3 -64 -3 -62 -2 -40 -8 94 -27 50 -7 60 -8 123 -20 46 -9 40 -21 -10 -19 -80
3 -178 -37 -178 -72 0 -16 41 -33 90 -38 19 -2 44 -6 56 -9 12 -2 45 -7 75
-11 30 -3 65 -8 79 -10 33 -6 108 -16 145 -20 17 -2 55 -9 85 -15 30 -6 67
-13 82 -15 15 -2 46 -9 70 -16 24 -7 45 -13 48 -14 39 -11 100 -30 165 -51 44
-14 87 -27 95 -29 38 -9 618 -209 643 -221 15 -8 27 -12 27 -9 0 3 9 1 20 -5
12 -6 50 -13 86 -15 55 -4 74 0 122 23 l57 27 -74 7 c-77 8 -154 31 -182 55
-21 18 -126 60 -224 90 -44 14 -154 49 -245 78 -257 83 -376 120 -490 154 -58
17 -118 35 -135 40 -16 5 -69 19 -116 31 -123 30 -131 31 -162 37 -22 4 -26 9
-22 24 9 28 -2 55 -29 67 -13 6 -26 9 -28 7z"/>
</g>
</svg>
